<svg fill="none" height="12" viewBox="0 0 16 12" width="16" xmlns="http://www.w3.org/2000/svg"><path d="m14.8672 6.48398c.4142 0 .75-.33579.75-.75s-.3358-.75-.75-.75zm-9.92515 4.49992c.28493.3006.75963.3134 1.06028.0284.30065-.2849.31339-.7596.02846-1.06025zm-3.942082-5.24992-.544371-.51591c-.274172.2893-.274172.74252 0 1.03181zm5.030822-4.21807c.28493-.30065.27219-.775353-.02846-1.06028-.30065-.284929-.77535-.272185-1.06028.028463zm8.83641 3.46807h-13.45937v1.5h13.45937zm-13.32286 1.2659 4.48645-4.73397-1.08874-1.031817-4.486453 4.733977zm4.48645 3.70217-2.24322-2.36699-1.08875 1.03181 2.24323 2.36703zm-2.24322-2.36699-2.24323-2.36699-1.088743 1.03181 2.243223 2.36699z" fill="#1264a3"/></svg>